<?xml version="1.0" encoding="utf-8"?>
<!-- Generator: Adobe Illustrator 21.0.0, SVG Export Plug-In . SVG Version: 6.00 Build 0)  -->
<svg version="1.1" id="圖層_1" xmlns="http://www.w3.org/2000/svg" xmlns:xlink="http://www.w3.org/1999/xlink" x="0px" y="0px"
	 viewBox="0 0 120 120" style="enable-background:new 0 0 120 120;" xml:space="preserve">
<style type="text/css">
	.st0{fill:#FFFFFF;}
	.st1{fill:none;stroke:#FFFFFF;stroke-width:5;stroke-linejoin:round;}
	.st2{fill:none;stroke:#FFFFFF;stroke-miterlimit:10;}
	.st3{fill:none;stroke:#FFFFFF;stroke-width:4;stroke-linecap:round;stroke-linejoin:round;}
</style>
<title>手機-icon</title>
<path class="st0" d="M13,20.2h95v16.4H13V20.2z"/>
<path class="st1" d="M13,20.2h95v87.3H13V20.2z"/>
<path class="st0" d="M26.3,49h8.8v8.8h-8.8V49z M46.1,49H55v8.8h-8.9V49z M26.3,67.1h8.8v8.8h-8.8V67.1z M46.1,67.1H55v8.8h-8.9
	V67.1z M26.3,85.4h8.8v8.8h-8.8V85.4z M46.1,85.4H55v8.8h-8.9V85.4z M66,49h8.8v8.8H66V49z M85.9,49h8.8v8.8h-8.8L85.9,49z M66,67.1
	h8.8v8.8H66V67.1z M85.9,67.1h8.8v8.8h-8.8L85.9,67.1z M66,85.4h8.8v8.8H66V85.4z M85.9,85.4h8.8v8.8h-8.8L85.9,85.4z"/>
<path class="st2" d="M13,36.8h95"/>
<path class="st3" d="M35.1,12.5v7.7 M85.9,12.5v7.7"/>
<path class="st0" d="M84.4,18v10c0.1,0.9,0.8,1.5,1.7,1.4c0.8-0.1,1.4-0.7,1.4-1.4V18H84.4z M33.5,18v10c0.1,0.9,0.8,1.5,1.7,1.4
	c0.8-0.1,1.4-0.7,1.4-1.4V18H33.5z"/>
<rect x="25.9" y="48.9" class="st0" width="9.2" height="9.2"/>
<rect x="45.9" y="66.9" class="st0" width="9.2" height="9.2"/>
<rect x="85.9" y="66.9" class="st0" width="9.3" height="9.3"/>
</svg>
