<svg width="65" height="65" viewBox="0 0 65 65" fill="none" xmlns="http://www.w3.org/2000/svg">
<path d="M50.1042 14.8958H55.5208V63.6458H9.47917V9.47913C32.5 6.77079 49.4271 1.35413 49.4271 1.35413H50.1042V14.8958ZM50.1042 14.8958H16.25M44.6875 39.2708C44.6875 36.0385 43.4035 32.9385 41.1179 30.6529C38.8323 28.3673 35.7323 27.0833 32.5 27.0833M44.6875 39.2708C44.6875 40.8713 44.3723 42.4561 43.7598 43.9347C43.1473 45.4134 42.2496 46.7569 41.1179 47.8887C39.9861 49.0204 38.6426 49.9181 37.164 50.5306C35.6853 51.1431 34.1005 51.4583 32.5 51.4583M44.6875 39.2708C43.3333 40.625 39.2708 41.9791 32.5 41.9791C25.7292 41.9791 21.6667 40.625 20.3125 39.2708M32.5 27.0833C29.2677 27.0833 26.1677 28.3673 23.8821 30.6529C21.5965 32.9385 20.3125 36.0385 20.3125 39.2708M32.5 27.0833C35.1163 27.0833 37.2396 32.5406 37.2396 39.2708C37.2396 46.001 35.1163 51.4583 32.5 51.4583M32.5 27.0833C29.8838 27.0833 27.7604 32.5406 27.7604 39.2708C27.7604 46.001 29.8838 51.4583 32.5 51.4583M32.5 51.4583C29.2677 51.4583 26.1677 50.1743 23.8821 47.8887C22.7504 46.7569 21.8527 45.4134 21.2402 43.9347C20.6277 42.4561 20.3125 40.8713 20.3125 39.2708" stroke="#f2f2f2" stroke-width="2.70833"/>
</svg>
