<svg width="65" height="65" viewBox="0 0 65 65" fill="none" xmlns="http://www.w3.org/2000/svg">
<path d="M51.2146 54.1667C51.9621 49.2294 52.8125 41.6081 52.8125 32.5C52.8125 16.25 50.1042 4.73958 50.1042 4.73958L49.9688 4.0625H4.0625V4.73958C4.0625 4.73958 6.77083 16.25 6.77083 32.5C6.77083 48.75 4.0625 60.2604 4.0625 60.2604V60.9375H58.0938L58.2292 60.2604C58.2292 60.2604 60.9375 48.75 60.9375 32.5C60.9375 24.1854 60.2279 17.114 59.5373 12.1875H51.4583M44.1865 44.6875H14.3948M13.4956 12.1875C14.6157 20.2615 15.065 28.4143 14.839 36.5625H44.6306C44.8567 28.4143 44.4073 20.2615 43.2873 12.1875H13.4956Z" stroke="#f2f2f2" stroke-width="2.70833"/>
</svg>
