<svg width="65" height="65" viewBox="0 0 65 65" fill="none" xmlns="http://www.w3.org/2000/svg">
<path d="M31.1458 63.6458C28.4375 63.6458 26.4063 59.5833 26.4063 59.5833C24.375 55.5208 24.375 50.1041 24.375 46.0416V44.6875L10.8333 37.9166V37.2395L14.8823 17.6718M14.8823 17.6718C15.3337 17.6267 15.7896 17.6041 16.25 17.6041H20.4317C21.2362 17.604 22.0306 17.783 22.7572 18.1282C23.4839 18.4734 24.1245 18.9761 24.6326 19.5999C25.1407 20.2236 25.5034 20.9527 25.6945 21.7342C25.8856 22.5156 25.9002 23.3298 25.7373 24.1177L23.0208 37.2395M14.8823 17.6718C12.0517 17.958 9.38163 19.1231 7.24687 21.0039C5.1121 22.8846 3.61973 25.3865 2.97917 28.1585L1.35417 35.2083M16.25 47.3958C13.5417 55.5208 8.125 60.9375 1.35417 60.9375M54.1667 63.6458C51.9648 63.6458 50.3154 60.366 50.3154 60.366C48.6633 57.0645 48.6633 52.6635 48.6633 49.362V48.2625L37.4942 42.7618V42.212L40.7821 26.3141M47.3958 42.212L49.6871 31.1431C49.8094 30.552 49.7985 29.9411 49.6551 29.3548C49.5117 28.7684 49.2395 28.2214 48.8582 27.7535C48.4769 27.2856 47.9962 26.9085 47.4509 26.6497C46.9056 26.3909 46.3094 26.2568 45.7058 26.2572H41.8979C41.5206 26.2572 41.1504 26.2762 40.7875 26.3141M30.1356 40.56L31.3138 34.8779C31.778 32.6295 32.9463 30.5873 34.6492 29.0476C36.3521 27.5078 38.5011 26.5504 40.7848 26.3141M53.95 35.2083C57.1052 37.4752 61.054 38.3608 65 38.3608M41.8979 50.4643C40.2729 55.342 37.4427 59.02 33.8542 60.607M23.9688 12.1875C23.9688 12.1875 19.6354 9.47913 19.6354 6.09371C19.6354 3.47746 21.7588 1.35413 24.375 1.35413C26.994 1.35413 29.1038 3.47746 29.1038 6.09371C29.1038 9.47913 24.7813 12.1875 24.7813 12.1875H23.9688ZM46.9896 20.3125C46.9896 20.3125 42.6563 17.6041 42.6563 14.2187C42.6563 12.9635 43.1549 11.7597 44.0425 10.8721C44.93 9.98453 46.1338 9.4859 47.3891 9.4859C48.6443 9.4859 49.8481 9.98453 50.7357 10.8721C51.6232 11.7597 52.1219 12.9635 52.1219 14.2187C52.1219 17.6041 47.8021 20.3125 47.8021 20.3125H46.9896Z" stroke="#f2f2f2" stroke-width="2.70833"/>
</svg>
