<svg width="65" height="65" viewBox="0 0 65 65" fill="none" xmlns="http://www.w3.org/2000/svg">
<path d="M58.2292 24.375V51.4583M14.8958 24.375V51.4583M6.77083 24.375V51.4583M50.1042 24.375V51.4583M5.41667 56.875H59.5833M0 63.6458H65M32.5 29.7916H29.7917C29.0734 29.7916 28.3845 30.077 27.8766 30.5849C27.3687 31.0928 27.0833 31.7817 27.0833 32.5V33.5156C27.0833 34.1016 27.2734 34.6718 27.625 35.1406C27.9766 35.6094 28.4708 35.9515 29.0333 36.1156L35.9667 38.1387C36.5292 38.3028 37.0234 38.6449 37.375 39.1137C37.7266 39.5825 37.9167 40.1527 37.9167 40.7387V43.3333C37.9167 44.0516 37.6313 44.7405 37.1234 45.2484C36.6155 45.7563 35.9266 46.0416 35.2083 46.0416H32.5M32.5 29.7916H35.2083C35.9266 29.7916 36.6155 30.077 37.1234 30.5849C37.6313 31.0928 37.9167 31.7817 37.9167 32.5V33.8541M32.5 29.7916V24.375M32.5 46.0416H29.7917C29.0734 46.0416 28.3845 45.7563 27.8766 45.2484C27.3687 44.7405 27.0833 44.0516 27.0833 43.3333V41.9791M32.5 46.0416V51.4583M63.6458 16.927V18.9583H1.35417V16.927C14.8958 12.1875 23.0208 8.12496 31.8229 1.35413H33.1771C41.9792 8.12496 50.1042 12.1875 63.6458 16.927Z" stroke="#f2f2f2" stroke-width="2.70833"/>
</svg>
