<?xml version="1.0" encoding="UTF-8"?>
<svg id="_圖層_1" xmlns="http://www.w3.org/2000/svg" xmlns:xlink="http://www.w3.org/1999/xlink" version="1.1" viewBox="0 0 200 49.7">
  <!-- Generator: Adobe Illustrator 29.1.0, SVG Export Plug-In . SVG Version: 2.1.0 Build 142)  -->
  <defs>
    <style>
      .st0 {
        fill: url(#_未命名的渐变_2);
      }

      .st1 {
        fill: url(#_未命名的渐变_5);
      }

      .st2 {
        fill: url(#_未命名的渐变_4);
      }

      .st3 {
        fill: url(#_未命名的渐变_3);
      }

      .st4 {
        fill: url(#_未命名的渐变_6);
      }

      .st5 {
        fill: url(#_未命名的渐变_9);
      }

      .st6 {
        fill: url(#_未命名的渐变_8);
      }

      .st7 {
        fill: url(#_未命名的渐变_7);
      }

      .st8 {
        fill: url(#_未命名的渐变);
      }

      .st9 {
        fill: #f2f2f2;
      }

      .st10 {
        fill: url(#_未命名的渐变_18);
      }

      .st11 {
        fill: url(#_未命名的渐变_10);
      }

      .st12 {
        fill: url(#_未命名的渐变_15);
      }

      .st13 {
        fill: url(#_未命名的渐变_16);
      }

      .st14 {
        fill: url(#_未命名的渐变_11);
      }

      .st15 {
        fill: url(#_未命名的渐变_13);
      }

      .st16 {
        fill: url(#_未命名的渐变_14);
      }

      .st17 {
        fill: url(#_未命名的渐变_17);
      }

      .st18 {
        fill: url(#_未命名的渐变_19);
      }

      .st19 {
        fill: url(#_未命名的渐变_12);
      }

      .st20 {
        fill: url(#_未命名的渐变_21);
      }

      .st21 {
        fill: url(#_未命名的渐变_20);
      }
    </style>
    <linearGradient id="_未命名的渐变" data-name="未命名的渐变" x1="66.4" y1="17.8" x2="13.1" y2="17.8" gradientTransform="translate(0 52) scale(1 -1)" gradientUnits="userSpaceOnUse">
      <stop offset="0" stop-color="#a0e14b"/>
      <stop offset="1" stop-color="#129990"/>
    </linearGradient>
    <linearGradient id="_未命名的渐变_2" data-name="未命名的渐变 2" x1="66.4" y1="21.3" x2="13.1" y2="21.3" gradientTransform="translate(0 52) scale(1 -1)" gradientUnits="userSpaceOnUse">
      <stop offset="0" stop-color="#a0e14b"/>
      <stop offset="1" stop-color="#129990"/>
    </linearGradient>
    <linearGradient id="_未命名的渐变_3" data-name="未命名的渐变 3" x1="66.4" y1="25.1" x2="13.1" y2="25.1" gradientTransform="translate(0 52) scale(1 -1)" gradientUnits="userSpaceOnUse">
      <stop offset="0" stop-color="#a0e14b"/>
      <stop offset="1" stop-color="#129990"/>
    </linearGradient>
    <linearGradient id="_未命名的渐变_4" data-name="未命名的渐变 4" x1="66.4" y1="27.9" x2="13.1" y2="27.9" gradientTransform="translate(0 52) scale(1 -1)" gradientUnits="userSpaceOnUse">
      <stop offset="0" stop-color="#a0e14b"/>
      <stop offset="1" stop-color="#129990"/>
    </linearGradient>
    <linearGradient id="_未命名的渐变_5" data-name="未命名的渐变 5" x1="66.4" y1="30.1" x2="13.1" y2="30.1" gradientTransform="translate(0 52) scale(1 -1)" gradientUnits="userSpaceOnUse">
      <stop offset="0" stop-color="#a0e14b"/>
      <stop offset="1" stop-color="#129990"/>
    </linearGradient>
    <linearGradient id="_未命名的渐变_6" data-name="未命名的渐变 6" x1="66.4" y1="31.7" x2="13.1" y2="31.7" gradientTransform="translate(0 52) scale(1 -1)" gradientUnits="userSpaceOnUse">
      <stop offset="0" stop-color="#a0e14b"/>
      <stop offset="1" stop-color="#129990"/>
    </linearGradient>
    <linearGradient id="_未命名的渐变_7" data-name="未命名的渐变 7" x1="66.4" y1="33" x2="13.1" y2="33" gradientTransform="translate(0 52) scale(1 -1)" gradientUnits="userSpaceOnUse">
      <stop offset="0" stop-color="#a0e14b"/>
      <stop offset="1" stop-color="#129990"/>
    </linearGradient>
    <linearGradient id="_未命名的渐变_8" data-name="未命名的渐变 8" x1="66.4" y1="34" x2="13.1" y2="34" gradientTransform="translate(0 52) scale(1 -1)" gradientUnits="userSpaceOnUse">
      <stop offset="0" stop-color="#a0e14b"/>
      <stop offset="1" stop-color="#129990"/>
    </linearGradient>
    <linearGradient id="_未命名的渐变_9" data-name="未命名的渐变 9" x1="66.4" y1="34.7" x2="13.1" y2="34.7" gradientTransform="translate(0 52) scale(1 -1)" gradientUnits="userSpaceOnUse">
      <stop offset="0" stop-color="#a0e14b"/>
      <stop offset="1" stop-color="#129990"/>
    </linearGradient>
    <linearGradient id="_未命名的渐变_10" data-name="未命名的渐变 10" x1="66.4" y1="35.1" x2="13.1" y2="35.1" gradientTransform="translate(0 52) scale(1 -1)" gradientUnits="userSpaceOnUse">
      <stop offset="0" stop-color="#a0e14b"/>
      <stop offset="1" stop-color="#129990"/>
    </linearGradient>
    <linearGradient id="_未命名的渐变_11" data-name="未命名的渐变 11" x1="66.4" y1="35.2" x2="13.1" y2="35.2" gradientTransform="translate(0 52) scale(1 -1)" gradientUnits="userSpaceOnUse">
      <stop offset="0" stop-color="#a0e14b"/>
      <stop offset="1" stop-color="#129990"/>
    </linearGradient>
    <linearGradient id="_未命名的渐变_12" data-name="未命名的渐变 12" x1="66.4" y1="35.1" x2="13.1" y2="35.1" gradientTransform="translate(0 52) scale(1 -1)" gradientUnits="userSpaceOnUse">
      <stop offset="0" stop-color="#a0e14b"/>
      <stop offset="1" stop-color="#129990"/>
    </linearGradient>
    <linearGradient id="_未命名的渐变_13" data-name="未命名的渐变 13" x1="66.4" y1="34.7" x2="13.1" y2="34.7" gradientTransform="translate(0 52) scale(1 -1)" gradientUnits="userSpaceOnUse">
      <stop offset="0" stop-color="#a0e14b"/>
      <stop offset="1" stop-color="#129990"/>
    </linearGradient>
    <linearGradient id="_未命名的渐变_14" data-name="未命名的渐变 14" x1="66.4" y1="34.1" x2="13.1" y2="34.1" gradientTransform="translate(0 52) scale(1 -1)" gradientUnits="userSpaceOnUse">
      <stop offset="0" stop-color="#a0e14b"/>
      <stop offset="1" stop-color="#129990"/>
    </linearGradient>
    <linearGradient id="_未命名的渐变_15" data-name="未命名的渐变 15" x1="66.4" y1="33.2" x2="13.1" y2="33.2" gradientTransform="translate(0 52) scale(1 -1)" gradientUnits="userSpaceOnUse">
      <stop offset="0" stop-color="#a0e14b"/>
      <stop offset="1" stop-color="#129990"/>
    </linearGradient>
    <linearGradient id="_未命名的渐变_16" data-name="未命名的渐变 16" x1="66.4" y1="32" x2="13.1" y2="32" gradientTransform="translate(0 52) scale(1 -1)" gradientUnits="userSpaceOnUse">
      <stop offset="0" stop-color="#a0e14b"/>
      <stop offset="1" stop-color="#129990"/>
    </linearGradient>
    <linearGradient id="_未命名的渐变_17" data-name="未命名的渐变 17" x1="66.4" y1="30.4" x2="13.1" y2="30.4" gradientTransform="translate(0 52) scale(1 -1)" gradientUnits="userSpaceOnUse">
      <stop offset="0" stop-color="#a0e14b"/>
      <stop offset="1" stop-color="#129990"/>
    </linearGradient>
    <linearGradient id="_未命名的渐变_18" data-name="未命名的渐变 18" x1="66.4" y1="28.4" x2="13.1" y2="28.4" gradientTransform="translate(0 52) scale(1 -1)" gradientUnits="userSpaceOnUse">
      <stop offset="0" stop-color="#a0e14b"/>
      <stop offset="1" stop-color="#129990"/>
    </linearGradient>
    <linearGradient id="_未命名的渐变_19" data-name="未命名的渐变 19" x1="66.4" y1="25.7" x2="13.1" y2="25.7" gradientTransform="translate(0 52) scale(1 -1)" gradientUnits="userSpaceOnUse">
      <stop offset="0" stop-color="#a0e14b"/>
      <stop offset="1" stop-color="#129990"/>
    </linearGradient>
    <linearGradient id="_未命名的渐变_20" data-name="未命名的渐变 20" x1="66.4" y1="22.2" x2="13.1" y2="22.2" gradientTransform="translate(0 52) scale(1 -1)" gradientUnits="userSpaceOnUse">
      <stop offset="0" stop-color="#a0e14b"/>
      <stop offset="1" stop-color="#129990"/>
    </linearGradient>
    <linearGradient id="_未命名的渐变_21" data-name="未命名的渐变 21" x1="66.4" y1="17.8" x2="13.1" y2="17.8" gradientTransform="translate(0 52) scale(1 -1)" gradientUnits="userSpaceOnUse">
      <stop offset="0" stop-color="#a0e14b"/>
      <stop offset="1" stop-color="#129990"/>
    </linearGradient>
  </defs>
  <g>
    <path class="st8" d="M14.1,40.7c0-.3,0-.5-.1-.8,0-.3,0-.5,0-.8,0-.5,0-1.1-.1-1.6,0-1.1,0-2.2,0-3.3s0-2.2,0-3.3c0-.5,0-1.1.1-1.6,0-.3,0-.5,0-.8,0-.3,0-.5.1-.8,0,.3,0,.5.1.8s0,.5,0,.8c0,.5,0,1.1.1,1.6,0,1.1,0,2.2,0,3.3s0,2.2,0,3.3c0,.5,0,1.1-.1,1.6,0,.3,0,.5,0,.8,0,.3,0,.5-.1.8Z"/>
    <path class="st0" d="M16.1,40.4c0-.4,0-.8-.1-1.2s0-.8,0-1.2c0-.8,0-1.6-.1-2.4,0-1.6,0-3.2,0-4.8s0-3.2,0-4.8c0-.8,0-1.6.1-2.4,0-.4,0-.8,0-1.2,0-.4,0-.8.1-1.2,0,.4,0,.8.1,1.2s0,.8,0,1.2c0,.8,0,1.6.1,2.4,0,1.6,0,3.2,0,4.8s0,3.2,0,4.8c0,.8,0,1.6-.1,2.4,0,.4,0,.8,0,1.2,0,.4,0,.8-.1,1.2Z"/>
    <path class="st3" d="M18.2,36.6c0-.4,0-.8-.1-1.2s0-.8,0-1.2c0-.8,0-1.6-.1-2.4,0-1.6,0-3.2,0-4.8s0-3.2,0-4.8c0-.8,0-1.6.1-2.4,0-.4,0-.8,0-1.2,0-.4,0-.8.1-1.2,0,.4,0,.8.1,1.2s0,.8,0,1.2c0,.8,0,1.6.1,2.4,0,1.6,0,3.2,0,4.8s0,3.2,0,4.8c0,.8,0,1.6-.1,2.4,0,.4,0,.8,0,1.2,0,.4,0,.8-.1,1.2Z"/>
    <path class="st2" d="M20.2,33.8c0-.4,0-.8-.1-1.2s0-.8,0-1.2c0-.8,0-1.6-.1-2.4,0-1.6,0-3.2,0-4.8s0-3.2,0-4.8c0-.8,0-1.6.1-2.4,0-.4,0-.8,0-1.2,0-.4,0-.8.1-1.2,0,.4,0,.8.1,1.2,0,.4,0,.8,0,1.2,0,.8,0,1.6.1,2.4,0,1.6,0,3.2,0,4.8s0,3.2,0,4.8c0,.8,0,1.6-.1,2.4,0,.4,0,.8,0,1.2,0,.4,0,.8-.1,1.2Z"/>
    <path class="st1" d="M22.2,31.6c0-.4,0-.8-.1-1.2s0-.8,0-1.2c0-.8,0-1.6-.1-2.4,0-1.6,0-3.2,0-4.8s0-3.2,0-4.8c0-.8,0-1.6.1-2.4,0-.4,0-.8,0-1.2,0-.4,0-.8.1-1.2,0,.4,0,.8.1,1.2,0,.4,0,.8,0,1.2,0,.8,0,1.6.1,2.4,0,1.6,0,3.2,0,4.8s0,3.2,0,4.8c0,.8,0,1.6-.1,2.4,0,.4,0,.8,0,1.2,0,.4,0,.8-.1,1.2Z"/>
    <path class="st4" d="M24.3,29.9c0-.4,0-.8-.1-1.2s0-.8,0-1.2c0-.8,0-1.6-.1-2.4,0-1.6,0-3.2,0-4.8s0-3.2,0-4.8c0-.8,0-1.6.1-2.4,0-.4,0-.8,0-1.2,0-.4,0-.8.1-1.2,0,.4,0,.8.1,1.2,0,.4,0,.8,0,1.2,0,.8,0,1.6.1,2.4,0,1.6,0,3.2,0,4.8s0,3.2,0,4.8c0,.8,0,1.6-.1,2.4,0,.4,0,.8,0,1.2,0,.4,0,.8-.1,1.2Z"/>
    <path class="st7" d="M26.3,28.7c0-.4,0-.8-.1-1.2s0-.8,0-1.2c0-.8,0-1.6-.1-2.4,0-1.6,0-3.2,0-4.8s0-3.2,0-4.8c0-.8,0-1.6.1-2.4,0-.4,0-.8,0-1.2,0-.4,0-.8.1-1.2,0,.4,0,.8.1,1.2,0,.4,0,.8,0,1.2,0,.8,0,1.6.1,2.4,0,1.6,0,3.2,0,4.8s0,3.2,0,4.8c0,.8,0,1.6-.1,2.4,0,.4,0,.8,0,1.2,0,.4,0,.8-.1,1.2Z"/>
    <path class="st6" d="M28.4,27.7c0-.4,0-.8-.1-1.2s0-.8,0-1.2c0-.8,0-1.6-.1-2.4,0-1.6,0-3.2,0-4.8s0-3.2,0-4.8c0-.8,0-1.6.1-2.4,0-.4,0-.8,0-1.2,0-.4,0-.8.1-1.2,0,.4,0,.8.1,1.2s0,.8,0,1.2c0,.8,0,1.6.1,2.4,0,1.6,0,3.2,0,4.8s0,3.2,0,4.8c0,.8,0,1.6-.1,2.4,0,.4,0,.8,0,1.2,0,.4,0,.8-.1,1.2Z"/>
    <path class="st5" d="M30.4,27c0-.4,0-.8-.1-1.2s0-.8,0-1.2c0-.8,0-1.6-.1-2.4,0-1.6,0-3.2,0-4.8s0-3.2,0-4.8c0-.8,0-1.6.1-2.4,0-.4,0-.8,0-1.2,0-.4,0-.8.1-1.2,0,.4,0,.8.1,1.2s0,.8,0,1.2c0,.8,0,1.6.1,2.4,0,1.6,0,3.2,0,4.8s0,3.2,0,4.8c0,.8,0,1.6-.1,2.4,0,.4,0,.8,0,1.2,0,.4,0,.8-.1,1.2Z"/>
    <path class="st11" d="M32.4,26.6c0-.4,0-.8-.1-1.2s0-.8,0-1.2c0-.8,0-1.6-.1-2.4,0-1.6,0-3.2,0-4.8s0-3.2,0-4.8c0-.8,0-1.6.1-2.4,0-.4,0-.8,0-1.2,0-.4,0-.8.1-1.2,0,.4,0,.8.1,1.2,0,.4,0,.8,0,1.2,0,.8,0,1.6.1,2.4,0,1.6,0,3.2,0,4.8s0,3.2,0,4.8c0,.8,0,1.6-.1,2.4,0,.4,0,.8,0,1.2,0,.4,0,.8-.1,1.2Z"/>
    <path class="st14" d="M34.5,26.5c0-.4,0-.8-.1-1.2s0-.8,0-1.2c0-.8,0-1.6-.1-2.4,0-1.6,0-3.2,0-4.8s0-3.2,0-4.8c0-.8,0-1.6.1-2.4,0-.4,0-.8,0-1.2,0-.4,0-.8.1-1.2,0,.4,0,.8.1,1.2s0,.8,0,1.2c0,.8,0,1.6.1,2.4,0,1.6,0,3.2,0,4.8s0,3.2,0,4.8c0,.8,0,1.6-.1,2.4,0,.4,0,.8,0,1.2,0,.4,0,.8-.1,1.2Z"/>
    <path class="st19" d="M36.5,26.6c0-.4,0-.8-.1-1.2s0-.8,0-1.2c0-.8,0-1.6-.1-2.4,0-1.6,0-3.2,0-4.8s0-3.2,0-4.8c0-.8,0-1.6.1-2.4,0-.4,0-.8,0-1.2,0-.4,0-.8.1-1.2,0,.4,0,.8.1,1.2,0,.4,0,.8,0,1.2,0,.8,0,1.6.1,2.4,0,1.6,0,3.2,0,4.8s0,3.2,0,4.8c0,.8,0,1.6-.1,2.4,0,.4,0,.8,0,1.2,0,.4,0,.8-.1,1.2Z"/>
    <path class="st15" d="M38.5,26.9c0-.4,0-.8-.1-1.2s0-.8,0-1.2c0-.8,0-1.6-.1-2.4,0-1.6,0-3.2,0-4.8s0-3.2,0-4.8c0-.8,0-1.6.1-2.4,0-.4,0-.8,0-1.2,0-.4,0-.8.1-1.2,0,.4,0,.8.1,1.2,0,.4,0,.8,0,1.2,0,.8,0,1.6.1,2.4,0,1.6,0,3.2,0,4.8s0,3.2,0,4.8c0,.8,0,1.6-.1,2.4,0,.4,0,.8,0,1.2,0,.4,0,.8-.1,1.2Z"/>
    <path class="st16" d="M40.6,27.5c0-.4,0-.8-.1-1.2s0-.8,0-1.2c0-.8,0-1.6-.1-2.4,0-1.6,0-3.2,0-4.8s0-3.2,0-4.8c0-.8,0-1.6.1-2.4,0-.4,0-.8,0-1.2,0-.4,0-.8.1-1.2,0,.4,0,.8.1,1.2s0,.8,0,1.2c0,.8,0,1.6.1,2.4,0,1.6,0,3.2,0,4.8s0,3.2,0,4.8c0,.8,0,1.6-.1,2.4,0,.4,0,.8,0,1.2,0,.4,0,.8-.1,1.2Z"/>
    <path class="st12" d="M42.6,28.4c0-.4,0-.8-.1-1.2s0-.8,0-1.2c0-.8,0-1.6-.1-2.4,0-1.6,0-3.2,0-4.8s0-3.2,0-4.8c0-.8,0-1.6.1-2.4,0-.4,0-.8,0-1.2,0-.4,0-.8.1-1.2,0,.4,0,.8.1,1.2,0,.4,0,.8,0,1.2,0,.8,0,1.6.1,2.4,0,1.6,0,3.2,0,4.8s0,3.2,0,4.8c0,.8,0,1.6-.1,2.4,0,.4,0,.8,0,1.2,0,.4,0,.8-.1,1.2Z"/>
    <path class="st13" d="M44.6,29.7c0-.4,0-.8-.1-1.2s0-.8,0-1.2c0-.8,0-1.6-.1-2.4,0-1.6,0-3.2,0-4.8s0-3.2,0-4.8c0-.8,0-1.6.1-2.4,0-.4,0-.8,0-1.2,0-.4,0-.8.1-1.2,0,.4,0,.8.1,1.2,0,.4,0,.8,0,1.2,0,.8,0,1.6.1,2.4,0,1.6,0,3.2,0,4.8s0,3.2,0,4.8c0,.8,0,1.6-.1,2.4,0,.4,0,.8,0,1.2,0,.4,0,.8-.1,1.2Z"/>
    <path class="st17" d="M46.7,31.2c0-.4,0-.8-.1-1.2s0-.8,0-1.2c0-.8,0-1.6-.1-2.4,0-1.6,0-3.2,0-4.8s0-3.2,0-4.8c0-.8,0-1.6.1-2.4,0-.4,0-.8,0-1.2,0-.4,0-.8.1-1.2,0,.4,0,.8.1,1.2,0,.4,0,.8,0,1.2,0,.8,0,1.6.1,2.4,0,1.6,0,3.2,0,4.8s0,3.2,0,4.8c0,.8,0,1.6-.1,2.4,0,.4,0,.8,0,1.2,0,.4,0,.8-.1,1.2Z"/>
    <path class="st10" d="M48.7,33.3c0-.4,0-.8-.1-1.2s0-.8,0-1.2c0-.8,0-1.6-.1-2.4,0-1.6,0-3.2,0-4.8s0-3.2,0-4.8c0-.8,0-1.6.1-2.4,0-.4,0-.8,0-1.2,0-.4,0-.8.1-1.2,0,.4,0,.8.1,1.2,0,.4,0,.8,0,1.2,0,.8,0,1.6.1,2.4,0,1.6,0,3.2,0,4.8s0,3.2,0,4.8c0,.8,0,1.6-.1,2.4,0,.4,0,.8,0,1.2,0,.4,0,.8-.1,1.2Z"/>
    <path class="st18" d="M50.8,35.9c0-.4,0-.8-.1-1.2s0-.8,0-1.2c0-.8,0-1.6-.1-2.4,0-1.6,0-3.2,0-4.8s0-3.2,0-4.8c0-.8,0-1.6.1-2.4,0-.4,0-.8,0-1.2,0-.4,0-.8.1-1.2,0,.4,0,.8.1,1.2s0,.8,0,1.2c0,.8,0,1.6.1,2.4,0,1.6,0,3.2,0,4.8s0,3.2,0,4.8c0,.8,0,1.6-.1,2.4,0,.4,0,.8,0,1.2,0,.4,0,.8-.1,1.2Z"/>
    <path class="st21" d="M52.8,39.5c0-.4,0-.8-.1-1.2s0-.8,0-1.2c0-.8,0-1.6-.1-2.4,0-1.6,0-3.2,0-4.8s0-3.2,0-4.8c0-.8,0-1.6.1-2.4,0-.4,0-.8,0-1.2,0-.4,0-.8.1-1.2,0,.4,0,.8.1,1.2s0,.8,0,1.2c0,.8,0,1.6.1,2.4,0,1.6,0,3.2,0,4.8s0,3.2,0,4.8c0,.8,0,1.6-.1,2.4,0,.4,0,.8,0,1.2,0,.4,0,.8-.1,1.2Z"/>
    <path class="st20" d="M54.8,42.5c0-.3,0-.7-.1-1s0-.7,0-1c0-.7,0-1.4-.1-2.1,0-1.4,0-2.8,0-4.2s0-2.8,0-4.2c0-.7,0-1.4.1-2.1,0-.3,0-.7,0-1,0-.3,0-.7.1-1,0,.3,0,.7.1,1s0,.7,0,1c0,.7,0,1.4.1,2.1,0,1.4,0,2.8,0,4.2s0,2.8,0,4.2,0,1.4-.1,2.1c0,.3,0,.7,0,1,0,.3,0,.7-.1,1Z"/>
  </g>
  <g>
    <path class="st9" d="M77.4,28c-1.6,1.1-2.4,1.5-4.5,2.5l-.4-2.8c-.3,1.2-.6,2.2-1.1,3.4-.6-1.1-1.2-1.8-2-2.6.6-1.1.9-2.1,1.2-3.5.2-1.1.2-1.7.2-3.9-.5,0-.8,0-1.2,0v-3c.3,0,.6,0,1,0-.4-2.2-.7-2.9-1.3-4.3l1.8-1.5c.3.8.6,1.7,1,3.2v-1.3c0-1.5,0-2.2-.1-2.9h3c0,.6-.1,1.4-.1,2.9v1.4c.4-1.1.6-2.2.9-3.4l1.2.8v-1.3c.4,0,.7,0,1.3,0h2.6c1,0,1.3,0,1.8,0,0,.4,0,.5,0,1.8v3.8c0,1.2,0,1.5,0,1.9-.6,0-.8,0-1.8,0h-.6l1.7.5c-.2.3-.4.5-.5.6h1.5c.3-.4.5-.7.7-1.1-.2,0-.3,0-.6,0v-2.1c.3,0,.5,0,1.4,0h1.5v-.8h-1.1c-.6,0-1.1,0-1.7,0v-1.8c.5,0,.9,0,1.7,0h1.1v-.8h-1.5c-.6,0-.9,0-1.4,0v-2.3c.4,0,.6,0,1.4,0h2.5c1.1,0,1.4,0,1.8,0,0,.4,0,1,0,1.8v3.8c0,.9,0,1.5,0,1.9-.5,0-.9,0-2,0h-2.4l2.1.5-.4.6h1.3c.9,0,1.2,0,1.5,0v2.3c-.4,0-.8,0-1.5,0h-1.9v.7h1.5c1,0,1.2,0,1.6,0v1.9c-.4,0-.7,0-1.6,0h-1.5v.7h1.5c1,0,1.2,0,1.6,0v1.9c-.4,0-.6,0-1.6,0h-1.5v.7h2.1c1,0,1.2,0,1.5,0v2.5c-.5,0-.9,0-1.8,0h-6.7v.6h-3c0-.7.1-1.2.1-2.4v-2.7c0-.2,0-.9,0-1.4-.2.2-.3.3-.5.6v2.8h0ZM72.2,18.1v-1.3l-1.5,1.3h1.5ZM73.2,21c0,1.7-.1,2.7-.1,3.1,0,1.1-.2,2.2-.5,3.4.6-.2.6-.2,1.1-.4v-6.1s-.4,0-.4,0ZM76.1,18.1c.6,0,.7,0,1,0v-.9c.4,0,.5,0,1.3,0h1.6v-.8h-1c-.7,0-1.1,0-1.6,0v-1.8c.4,0,.8,0,1.6,0h1v-.8h-1.6c-.4,0-.5,0-.8,0-.6,2-.8,2.6-1.4,3.8l-1.2-.9v1.2s1.1,0,1.1,0ZM76.1,22.5c1.3-.9,2.5-2.2,3-3.3h-.7c-.6,0-.9,0-1.3,0v1.8c-.3,0-.5,0-1.1,0v1.5h0ZM76.1,26c.4-.2.6-.4,1.1-.6-.4-.9-.6-1.3-1.1-2v2.6ZM82.9,23.3v-.7h-2v.7h2ZM80.8,25.7h2v-.7h-2v.7ZM80.8,28.2h2v-.7h-2v.7Z"/>
    <path class="st9" d="M109.1,25.5c-.2.1-.5.5-1.2,1.1-.4.4-.5.5-.8.7,1.1.4,1.9.6,3.4.8-.8,1.2-1,1.7-1.5,3.1-2.8-.8-4.5-1.6-6.1-3v1.6c-2,.4-2.7.5-5.7.9-1.6.2-2.1.3-2.6.4l-.4-2.9c-.4,1.2-.6,1.8-1.3,3-.9-1.2-1.5-1.8-2.6-2.7.8-1.3,1.1-2.2,1.4-3.8.4-1.9.5-5,.5-9.6s0-2.4-.1-3.4c.8,0,1.7.1,3,.1h11.9c1.1,0,1.9,0,2.6-.1,0,.6,0,1.2,0,2.1v1.8c0,1.1,0,1.5,0,2.1-.6,0-1.5,0-2.5,0h-.7v.9h.7c1.3,0,1.6,0,2.1,0v2.6c-.7,0-1.4,0-2.2,0h-.6v.9h1.3c1.3,0,1.9,0,2.5,0v2.8c-.7,0-1.4,0-2.4,0h-.6l2.1.8h0ZM95,24.7c-.2,1.3-.4,2.3-.6,3.3.2,0,.5,0,.7,0,.2,0,.8,0,1.4,0v-3.2s-1.5,0-1.5,0ZM97.8,17.8h-2.4c0,2.1,0,2.9-.1,4.3h2.6v-.9h-.3c-.8,0-1.2,0-1.7,0v-2.6c.5,0,1,0,1.7,0h.3v-.9h0ZM106.4,15.5v-.9h-11.1v.9h11.1ZM99.5,24.7v2.9c1-.1,1.6-.2,2.4-.3-.7-.8-1.2-1.5-1.6-2.6h-.8,0ZM103.3,18.7v-.9h-2.5v.9h2.5ZM103.3,22.1v-.9h-2.5v.9h2.5ZM103.5,24.7c.3.5.6.8,1.2,1.3.5-.4.9-.8,1.2-1.3h-2.4Z"/>
    <path class="st9" d="M118.8,28.2c0,1.2,0,2.1.1,2.9h-3.4c0-.7.1-1.6.1-2.9v-5.8c-.7.7-1.2,1.1-2.3,2-.6-1.4-1.1-2.1-1.9-3,2.5-1.6,4.2-3.2,5.6-5.3h-2.3c-1.1,0-1.9,0-2.7.1v-3.2c.8,0,1.5.1,2.7.1h3.7c.3-.7.4-1.3.5-1.9l3.6.4c0,.2-.3.7-.6,1.5h6.6c1.2,0,2,0,2.7-.1v3.2c-.8,0-1.6-.1-2.7-.1h-8c-.2.4-.4.6-.7,1.1h6.8c1.1,0,1.6,0,2.2,0,0,.6-.1,1.3-.1,2.3v9.1c0,1-.3,1.7-1.1,2.1-.5.3-1.4.4-2.8.4s-1,0-1.9,0c-.1-1.2-.3-1.9-.8-3.1,1.1.1,2,.2,2.5.2s.8-.1.8-.6v-.7h-6.8v1.4h0ZM125.5,20.8v-.9h-6.8v.9h6.8ZM125.5,24.3v-.9h-6.8v.9h6.8Z"/>
    <path class="st9" d="M141.1,14.3s0,0,0,.2c0,0,0,0,0,.1-.3,1.1-1,2.9-1.7,4.3,1.3,2,1.6,3,1.6,4.6s-.5,2.1-1.5,2.6c-.6.2-1.3.4-2.3.4,0-1.5-.2-2.1-.5-3,.2,0,.4,0,.6,0,.6,0,.8-.1.8-.7,0-.9-.2-1.9-.7-2.7-.2-.3-.2-.4-.7-1v9c0,1,0,1.9.1,2.9h-3.3c0-.7.1-1.7.1-2.9v-14c0-.5,0-1.3,0-2.3.5,0,.8,0,1.7,0h3.3c1,0,1.3,0,1.6-.1l1.3,1.8c0-.6,0-1.1,0-1.7.5,0,.9,0,2,0h6.6c1,0,1.3,0,1.9,0,0,.4,0,1.1,0,2.3v5.3c0,1.1,0,1.5,0,2.3-.3,0-.7,0-1,0l2.1,1.7c-.1,0-.2.1-1.1.9-.4.4-1.1.9-1.7,1.3.9,1,1.7,1.6,2.9,2.2-.7.9-1.1,1.7-1.6,3.1-1-.6-1.5-.9-2.1-1.6-.7-.6-1.3-1.2-1.7-1.9v1.6c-1.6.4-4.1,1-5.6,1.3-1.4.3-1.9.4-2.3.5l-.5-3.3c.4,0,.9,0,2.1-.2v-13.3h0ZM136.4,18.9c.7-1.4,1-2.2,1.5-4.1h-1.5v4.1ZM144.2,15.8h4.2v-.9h-4.2v.9ZM144.2,19.3h4.2v-1h-4.2v1ZM144.2,27c.9-.2,1.6-.3,2.3-.5-.8-1.4-1.2-2.7-1.5-4.6h-.9v5.1h0ZM147.9,21.9c.1.7.2,1,.4,1.5.6-.5,1.4-1.2,1.7-1.5,0,0-2.1,0-2.1,0Z"/>
    <path class="st9" d="M162.8,12.9c-.1.2-.3.5-.6,1.1-.7,1.6-2.1,3.6-3.4,5.2-1.1,1.2-1.9,2.1-3.3,3.2-.7-1.3-1.3-2.1-2.1-3.1,2.1-1.5,3.7-3.1,4.9-5.2.6-1.1.9-1.8,1.1-2.5l3.4,1.3h0ZM169.6,31.2c-.5-1.1-.7-1.4-1.1-2.2-3.7.6-6.8.9-12.4,1.2-.4,0-.8,0-1.2.1l-.5-3.6c.4,0,.8,0,1.5,0h1.1c1.2-2.1,2.1-3.9,3-5.8.9-1.9,1.1-2.5,1.3-3.6l3.8.9c-.1.2-.2.3-.3.7-1.1,2.7-2.8,5.9-3.8,7.7,3-.1,4.5-.3,6-.5-.7-1.2-1.5-2.3-2.2-3.2l2.8-1.5c2.1,2.8,3.8,5.3,5.1,8l-3.1,1.8h0ZM167.4,11.6c.3,1.1,1.2,2.8,2.3,4.1,1.1,1.4,2.3,2.4,4,3.5-.9,1.1-1.4,1.8-2.1,3.2-2-1.6-3.4-2.9-4.7-4.8-1.1-1.5-1.5-2.3-2.4-4.3,0-.2-.1-.3-.2-.4,0,0,3.1-1.3,3.1-1.3Z"/>
    <path class="st9" d="M192.8,28c0,2.5-.8,3-4.4,3s-1.1,0-1.9,0c-.2-1.4-.4-2-1-3.3,1.3.1,2.2.2,3.2.2s.9-.2.9-.6v-12.2h-11.9c-1.5,0-2.1,0-2.9.1v-3.2c.7.1,1.3.1,2.9.1h12.8c1,0,1.6,0,2.4-.1,0,.8-.1,1.3-.1,2.3v13.7h0ZM175.7,15.9c.5,0,.9,0,1.8,0h9.1c.9,0,1.3,0,1.8,0v3.1c-.5,0-.9-.1-1.8-.1h-9.1c-.9,0-1.3,0-1.8.1v-3.1ZM187.5,25.3c0,1,0,1.5,0,2-.6,0-1.1,0-2.1,0h-5.7v1.7h-3.2c0-.6.1-1.3.1-2.4v-4.8c0-.8,0-1.4-.1-2,.6,0,1.1,0,2,0h6.8c1.1,0,1.7,0,2.2,0,0,.5,0,1,0,2v3.5h0ZM179.8,24.4h4.6v-1.7h-4.6s0,1.7,0,1.7Z"/>
  </g>
  <g>
    <g>
      <path class="st9" d="M69.3,33.2c0,0,0,0,.2,0h3.8c.3,0,.5,0,.7.1.6.1.9.5,1.1,1.1.2.9,0,1.6-.9,2-.1,0-.2.2,0,.3l1.1,2c.1.3.3.5.6.6.1,0,.2,0,.2.1s0,0-.3,0h-1.6c-.2,0-.3,0-.4-.3l-1.4-2.5c0-.2-.2-.2-.3-.2s-.2,0-.2.2v1.9c0,.4.1.6.5.7.2,0,.3,0,.3,0,0,0,0,0-.3,0h-2.8c-.2,0-.3,0-.3,0,0,0,0,0,.3,0,.4,0,.5-.3.5-.6v-4.9c0-.4-.2-.5-.6-.6-.2,0-.3,0-.3,0h0ZM73.5,34.6c0-.9-.5-1.3-1.4-1.2-.1,0-.2,0-.2.2v2.4c0,.1,0,.2.2.2.5,0,.9,0,1.2-.5.2-.3.2-.7.2-1.2h0Z"/>
      <path class="st9" d="M78.6,33.4c0-.2.2-.3.3-.3s.3,0,.4.3c.7,1.8,1.5,3.7,2.3,5.5,0,.2.2.4.4.5,0,0,.1,0,.1.1s0,0-.3,0h-2.4c-.2,0-.3,0-.3,0,0,0,0,0,.3,0,.5,0,.6-.3.4-.7-.1-.3-.3-.6-.4-.9,0-.2-.2-.3-.3-.3h-1.5c-.1,0-.2,0-.3.3-.1.3-.2.6-.3,1,0,.4.1.6.5.6.2,0,.3,0,.3,0,0,0,0,0-.3,0h-1.2c-.2,0-.3,0-.3,0,0,0,0-.1.3-.2.3-.1.5-.4.6-.9.6-1.7,1.2-3.3,1.8-5h0ZM78.4,35.2c0-.2-.1-.2-.2,0-.2.6-.4,1.1-.6,1.7,0,.1,0,.2.2.2h1.2c.1,0,.2,0,.1-.3l-.7-1.6h0Z"/>
      <path class="st9" d="M82.1,33.2c0,0,0,0,.2,0h3.5c.8,0,1.5.4,2.1,1.1.5.6.7,1.3.7,2,0,.6,0,1.1-.3,1.6-.2.5-.6,1-1.1,1.3-.4.3-.9.4-1.5.5h-3.4c-.2,0-.3,0-.3,0,0,0,0,0,.3,0,.3,0,.5-.2.6-.6h0v-5c0-.2,0-.3-.2-.4,0,0-.2-.1-.4-.1-.2,0-.3,0-.3,0h0ZM86.4,34.5c-.3-.8-.8-1.2-1.6-1.2-.1,0-.2,0-.2.2v5.2c0,.3,0,.4.3.5.5.1,1,0,1.4-.6.3-.5.4-1.1.4-1.8,0-.8,0-1.6-.3-2.3h0Z"/>
      <path class="st9" d="M88.9,33.2c0,0,0,0,.2,0h2.9c.2,0,.3,0,.3,0,0,0,0,0-.3,0-.2,0-.3,0-.4.2,0,.1-.1.3-.1.5v4.7c0,.3,0,.5.3.6h.3c.2,0,.3,0,.3.1,0,0,0,0-.3,0h-2.9c-.2,0-.3,0-.3,0,0,0,0,0,.3,0,.3,0,.4-.1.5-.4v-.3c0,0,0-4.8,0-4.8,0-.1,0-.2,0-.4,0-.2-.2-.3-.5-.3-.2,0-.3,0-.3,0Z"/>
      <path class="st9" d="M95.2,33.4c0-.2.2-.3.3-.3s.3,0,.4.3c.7,1.8,1.5,3.7,2.3,5.5,0,.2.2.4.4.5,0,0,.1,0,.1.1s0,0-.3,0h-2.4c-.2,0-.3,0-.3,0,0,0,0,0,.3,0,.5,0,.6-.3.4-.7-.1-.3-.3-.6-.4-.9,0-.2-.2-.3-.3-.3h-1.5c-.1,0-.2,0-.3.3-.1.3-.2.6-.3,1,0,.4.1.6.5.6.2,0,.3,0,.3,0,0,0,0,0-.3,0h-1.2c-.2,0-.3,0-.3,0,0,0,0-.1.3-.2.3-.1.5-.4.6-.9.6-1.7,1.2-3.3,1.8-5h0ZM95,35.2c0-.2-.1-.2-.2,0-.2.6-.4,1.1-.6,1.7,0,.1,0,.2.2.2h1.2c.1,0,.2,0,.1-.3l-.7-1.6h0Z"/>
      <path class="st9" d="M98.8,33.2c0,0,0,0,.2,0h1.9c.2,0,.3,0,.5.3l2.9,3.7c.1.2.2.2.2,0v-3.3c0-.3-.2-.5-.5-.6-.2,0-.3,0-.3,0s0,0,.3,0h1.3c.2,0,.3,0,.3,0,0,0,0,0-.3.1-.3,0-.5.3-.5.6v5.4c0,.2,0,.3-.3.3h0c-.2,0-.3,0-.5-.3l-3.9-5c-.1-.2-.2-.2-.2,0v4.4c0,.4.2.6.6.7.2,0,.3,0,.3,0,0,0,0,0-.2,0h-1.4c-.2,0-.3,0-.3,0,0,0,0,0,.3-.1.3-.1.5-.4.5-.7v-4.7c0-.1,0-.3-.1-.4-.1-.2-.3-.3-.4-.3-.2,0-.3,0-.3,0h0Z"/>
      <path class="st9" d="M105.7,33.4c0-.2,0-.3.2-.3h5.1c.2,0,.3,0,.3.3v1c0,.2,0,.3,0,.3,0,0,0,0-.1-.3-.1-.6-.5-1-1.1-1h-.5c-.1,0-.2,0-.2.2v5.1c0,.4.1.6.5.7.2,0,.3,0,.3.1s0,0-.3,0h-2.8c-.2,0-.3,0-.3,0,0,0,0,0,.3,0,.4,0,.6-.3.6-.7v-5c0-.1,0-.2-.2-.2-.5,0-1,0-1.3.5-.1.2-.2.3-.2.5,0,.2,0,.3-.1.3s0,0,0-.3v-1h0Z"/>
    </g>
    <g>
      <path class="st9" d="M116.2,33.3c.5,0,1.1,0,1.7.1l.7.2c.2,0,.4,0,.5-.2,0,0,0-.1,0-.1s0,0,0,.3v1.3c0,.2,0,.3,0,.3s-.1,0-.2-.3c-.2-.5-.6-.9-1-1.2-.5-.2-.9-.3-1.4,0-.2,0-.4.3-.6.5-.2.4-.4.8-.4,1.4,0,.9,0,1.8,0,2.6.3,1,.8,1.4,1.8,1.2.1,0,.2-.1.2-.2v-1.6c0-.3-.1-.5-.4-.6-.2,0-.3,0-.3-.1s0,0,.3,0h2.4c.2,0,.3,0,.3,0s0,0-.3,0c-.1,0-.2,0-.3,0,0,0-.1.2-.1.5v1.3c0,.2,0,.3-.3.4-1,.4-1.9.5-2.8.3-.8-.2-1.4-.6-1.9-1.3-.5-.9-.6-1.9-.3-2.9.4-1.2,1.2-1.8,2.3-2h0Z"/>
      <path class="st9" d="M119.7,33.4c0,0,0,0,.2,0h3.7c.3,0,.5,0,.7.1.6.1.9.5,1.1,1,.2.9,0,1.5-.9,2-.1,0-.2.2,0,.3l1.1,2c.1.3.3.5.5.6.1,0,.2,0,.2.1s0,0-.3,0h-1.6c-.2,0-.3,0-.4-.2l-1.3-2.4c0-.2-.2-.2-.3-.2s-.2,0-.2.2v1.9c0,.4.1.6.5.7.2,0,.3,0,.3,0s0,0-.3,0h-2.7c-.2,0-.3,0-.3,0s0,0,.3,0c.3,0,.5-.2.5-.6v-4.8c0-.3-.2-.5-.6-.6-.2,0-.3,0-.3,0h0ZM123.8,34.8c0-.9-.5-1.2-1.4-1.2-.1,0-.2,0-.2.2v2.4c0,.1,0,.2.2.2.5,0,.9,0,1.2-.5.2-.3.2-.7.2-1.2h0Z"/>
      <path class="st9" d="M128.7,33.4c1.1-.3,2.1-.2,3,.3.5.3.9.7,1.1,1.2.3.7.4,1.5.2,2.3-.1.8-.6,1.4-1.3,2-.7.4-1.4.5-2.3.5-.5,0-1-.2-1.4-.4-.8-.5-1.2-1.1-1.4-1.9-.2-.8-.1-1.6.2-2.3.4-.9,1-1.4,1.8-1.6h0ZM130.3,33.6c-.4-.2-.8,0-1.2.3-.3.5-.5,1.2-.5,2v.9c0,.4,0,.9.2,1.4.2.9.7,1.2,1.4,1.1.3,0,.5-.3.6-.5.3-.5.4-1.2.4-2,0-.7,0-1.3-.1-1.9-.1-.6-.4-1-.8-1.2h0Z"/>
      <path class="st9" d="M133.3,33.4s0,0,.2,0h2.4c.2,0,.3,0,.3,0s0,0-.1,0c-.1,0-.2,0-.3.2,0,.2,0,.5.1.8l.9,2.5c0,.2,0,.1.2,0l.7-2c.1-.2.2-.4.1-.5,0-.3-.2-.5-.2-.7,0-.2-.2-.3-.4-.3s-.3,0-.3-.1,0,0,.3,0h2.3c.2,0,.3,0,.3,0s0,0-.3,0c-.2,0-.3.2-.2.3.3,1,.6,2.1,1,3.1,0,.1,0,.1.2,0l1.1-3c0-.2,0-.3-.2-.4-.1,0-.2,0-.2,0,0,0,0,0,.2,0h.9c.2,0,.3,0,.3,0s0,0-.3.1c-.2,0-.3.3-.5.7l-1.8,5.2c0,.2-.2.3-.3.3s-.2,0-.3-.3l-1.3-4.1c0-.2,0-.1-.2,0l-1.4,4c0,.2-.1.3-.2.3s-.2,0-.3-.3c-.6-1.8-1.2-3.6-1.8-5.4,0-.3-.3-.5-.5-.5-.2,0-.3,0-.3,0h0Z"/>
      <path class="st9" d="M142.4,33.6c0-.2,0-.3.2-.3h5c.2,0,.3,0,.3.3v1c0,.2,0,.3,0,.3s0,0-.1-.3c-.1-.6-.5-1-1.1-1h-.5c-.1,0-.2,0-.2.2v4.9c0,.4.1.6.5.7.2,0,.3,0,.3,0s0,0-.3,0h-2.8c-.2,0-.3,0-.3,0s0,0,.3,0c.4,0,.6-.3.5-.7v-4.9c0-.1,0-.2-.2-.2-.5,0-.9,0-1.3.5-.1.2-.2.3-.2.5,0,.2,0,.3-.1.3s0,0,0-.3v-1h0Z"/>
      <path class="st9" d="M148,33.4c0,0,0,0,.2,0h2.7c.2,0,.3,0,.3,0s0,0-.3,0c-.3,0-.5.2-.5.5v2c0,.1,0,.2.2.2h1.6c.1,0,.2,0,.2-.2v-2c0-.3-.1-.5-.4-.5-.2,0-.3,0-.3,0s0,0,.3,0h2.7c.2,0,.3,0,.3,0s0,0-.3,0c-.2,0-.3,0-.4.1,0,0,0,.2-.1.4v4.9c0,.3.2.5.5.5.2,0,.3,0,.3,0,0,0,0,0-.3,0h-2.7c-.2,0-.3,0-.3,0s0,0,.3,0c.3,0,.5-.2.4-.5v-2.1c0-.1,0-.2-.2-.2h-1.6c-.1,0-.2,0-.2.2v2.2c0,.3.1.5.4.5.2,0,.3,0,.3,0s0,0-.3,0h-2.7c-.2,0-.3,0-.3,0s0,0,.3,0c.3,0,.4-.1.5-.4v-.2s0-4.9,0-4.9c0-.3-.2-.5-.5-.5-.2,0-.3,0-.3,0h0Z"/>
    </g>
  </g>
</svg>